<mxfile host="app.diagrams.net" modified="2023-01-22T07:13:25.459Z" agent="5.0 (Windows NT 10.0; Win64; x64) AppleWebKit/537.36 (KHTML, like Gecko) Chrome/108.0.0.0 Safari/537.36" etag="xyu3LU1Z46NSpvGMZBGN" version="20.5.3" type="github">
  <diagram id="-KhWxun8ObMhiOvJqzjZ" name="第 1 页">
    <mxGraphModel dx="1422" dy="754" grid="1" gridSize="10" guides="1" tooltips="1" connect="1" arrows="1" fold="1" page="1" pageScale="1" pageWidth="827" pageHeight="1169" math="0" shadow="0">
      <root>
        <mxCell id="0" />
        <mxCell id="1" parent="0" />
        <mxCell id="u-hLE3L-y5ioJGdZaA26-1" value="OBU" style="rounded=1;whiteSpace=wrap;html=1;" vertex="1" parent="1">
          <mxGeometry x="80" y="80" width="80" height="30" as="geometry" />
        </mxCell>
        <mxCell id="u-hLE3L-y5ioJGdZaA26-3" value="RSU" style="rounded=1;whiteSpace=wrap;html=1;" vertex="1" parent="1">
          <mxGeometry x="200" y="80" width="80" height="30" as="geometry" />
        </mxCell>
        <mxCell id="u-hLE3L-y5ioJGdZaA26-4" value="MC" style="rounded=1;whiteSpace=wrap;html=1;" vertex="1" parent="1">
          <mxGeometry x="320" y="80" width="80" height="30" as="geometry" />
        </mxCell>
        <mxCell id="u-hLE3L-y5ioJGdZaA26-5" value="SC" style="rounded=1;whiteSpace=wrap;html=1;" vertex="1" parent="1">
          <mxGeometry x="440" y="80" width="80" height="30" as="geometry" />
        </mxCell>
      </root>
    </mxGraphModel>
  </diagram>
</mxfile>
